PathFileType	4	(X/Y/Z)	C:\Users\WrightLab\Desktop\Jo\P4V115.trc
DataRate	CameraRate	NumFrames	NumMarkers	Units	OrigDataRate	OrigDataStartFrame	OrigNumFrames
100.00	100.00	       10	19	mm	100.00	478	       637
Frame#	Time	Headset_Front			Headset_Back			Headset_Left			Headset_Right			Left_Shoulder			Right_Shoulder			Sternum			C7			Left Elbow			Right Elbow			Left Wrist			Right Wrist			Left ASIS			Right ASIS			S2			Left Knee			Right Knee			Left Ankle			Right Ankle			
		X1	Y1	Z1	X2	Y2	Z2	X3	Y3	Z3	X4	Y4	Z4	X5	Y5	Z5	X6	Y6	Z6	X7	Y7	Z7	X8	Y8	Z8	X9	Y9	Z9	X10	Y10	Z10	X11	Y11	Z11	X12	Y12	Z12	X13	Y13	Z13	X14	Y14	Z14	X15	Y15	Z15	X16	Y16	Z16	X17	Y17	Z17	X18	Y18	Z18	X19	Y19	Z19	

478	4.770	196.82849	1089.98792	1332.84875										280.23340	1566.38293	1454.04443	-19.89319	1559.44678	1381.58203	118.33579	1501.85754	1526.07422				443.43317	1227.42371	1450.35034	-153.74174	1208.08716	1410.33691	423.35776	959.05988	1609.53394	-145.83157	1003.97247	1634.09436	264.88623	1081.48669	1559.18042	-48.59733	1052.63306	1449.07178				269.01328	636.64032	1707.89038	55.11907	572.32843	1403.16321	332.49490	132.16879	1624.20459	213.98087	91.32868	1319.95044	
479	4.780													278.62469	1565.42456	1463.80847	-20.80546	1558.41541	1390.11731	116.35059	1500.82776	1535.38293				442.14908	1226.60876	1461.69421	-154.89760	1206.85303	1419.06372	421.84879	958.06311	1618.86121	-148.10201	1004.86615	1643.65210	263.44296	1080.85571	1570.61707	-49.47215	1052.19165	1457.01709				265.28748	632.86993	1714.63586	54.95145	572.15570	1407.90881	322.50311	125.75885	1657.08960	214.13394	91.53160	1320.05640	
480	4.790													276.75500	1564.23474	1474.30493	-22.12430	1556.58252	1397.91589	114.28982	1499.41919	1544.91089				441.35678	1226.24390	1472.81580	-156.34821	1205.95923	1426.59814	419.69006	956.52698	1629.84680	-150.42174	1005.95557	1653.83887	261.63574	1078.44763	1580.00928	-50.47505	1051.67786	1465.56702				262.42294	630.68750	1723.36621	54.49443	571.91949	1412.95422	309.68976	119.72250	1688.99536	214.89038	92.06065	1320.52148	
481	4.800													275.62827	1563.09045	1484.71570	-22.69068	1555.29602	1406.59998	112.78728	1498.14063	1554.18689				440.15497	1225.20374	1485.08862	-157.44986	1204.49011	1433.98242	418.65045	955.30420	1639.51062	-152.87721	1005.87494	1663.18311	260.29971	1076.82593	1591.16406	-51.47092	1050.71313	1474.36523				259.17847	628.09753	1731.80029	54.01282	571.87170	1418.26880	297.12137	114.89312	1717.77112	215.48605	92.09046	1321.09534	
482	4.810													273.92365	1562.11194	1494.54407	-24.26568	1553.89758	1414.96399	111.06856	1497.09241	1562.83838				439.04272	1224.25562	1496.03198	-158.80731	1203.03760	1443.39844	416.40527	953.57520	1648.04211	-156.14926	1006.76910	1673.29150	258.22232	1074.77454	1601.14307	-52.60817	1049.68958	1484.26123				257.28433	623.91168	1737.89050	53.30402	571.55426	1423.73010	283.63324	110.42755	1745.77979	215.40016	93.00288	1321.39172	
483	4.820	194.76826	1083.72668	1385.17480										273.05820	1560.80029	1503.89685	-24.87780	1551.69226	1423.92529	109.34102	1495.74084	1571.83911				438.08887	1223.46484	1508.31787	-160.00067	1201.60254	1451.83972	415.01047	951.78101	1659.39648	-158.53154	1006.14026	1683.10486	257.58609	1073.18909	1611.81531	-53.46804	1048.89441	1493.60693				254.63297	619.95215	1745.88757	52.46532	571.06604	1429.30811	267.92014	107.15688	1771.72034	215.66786	93.97003	1322.47229	
484	4.830													271.52405	1559.96399	1515.45618	-25.68328	1550.43286	1431.79492	107.35802	1494.07898	1581.52734				437.13742	1222.27112	1519.33130	-161.24190	1199.86731	1459.91516	413.32434	949.77740	1670.50842	-161.55406	1005.43134	1691.41455	255.86624	1070.79785	1622.73621	-54.98006	1048.03955	1503.49768				252.91713	615.86932	1751.97180	51.73996	570.55676	1435.28406	253.05096	105.09180	1797.62915	215.64961	94.52126	1322.54700	
485	4.840	76.29446	1719.12817	1685.54260										270.10339	1557.95703	1524.06934	-26.55583	1548.97070	1439.35120	106.10161	1492.66016	1590.79553				436.09219	1220.62842	1531.33374	-162.81769	1198.19006	1468.61316	412.55508	947.58826	1680.01624	-164.33041	1004.55969	1700.81152	254.74648	1068.34827	1632.98340	-55.66035	1046.69995	1513.82446				250.74443	610.86334	1758.45496	50.33365	570.26508	1441.23523	237.23784	103.75469	1820.89905	215.90025	95.39994	1323.00549	
486	4.850	75.04433	1717.46057	1695.32971										269.21661	1556.25354	1534.85205	-27.63571	1547.23047	1449.53760	104.50835	1491.84631	1599.98230				435.10248	1219.02759	1543.50781	-162.71767	1196.04248	1476.28015	410.15366	946.03693	1691.90356	-167.34566	1003.96899	1709.91663	253.65192	1065.48450	1642.87244	-56.92057	1045.35046	1524.29321				248.25974	606.22949	1764.22656	49.00547	569.44080	1447.51428	222.80702	102.51398	1842.11072	217.16721	96.74656	1324.45154	
487	4.860	73.55984	1716.17065	1703.36230										268.03400	1554.45715	1543.39746	-27.98343	1544.91614	1457.01062	103.13792	1490.09204	1608.95544				434.13599	1217.63672	1554.74585	-165.23141	1194.84570	1485.22778	409.33893	943.62103	1702.00806	-170.55061	1002.09253	1718.62219	252.09152	1063.06519	1653.93298	-58.53133	1044.17249	1535.43176				245.32770	602.14099	1771.21399	47.99666	568.83990	1454.22351	208.55914	100.75665	1860.10815	217.20992	97.92348	1324.87903	
